<svg width="45" height="45" viewBox="0 0 45 45" fill="none" xmlns="http://www.w3.org/2000/svg">
<g clip-path="url(#clip0)">
<path d="M30.8101 17.0002L34.8901 6.69016C35.309 5.60988 35.287 4.40831 34.8287 3.34411C34.3705 2.27992 33.5127 1.4382 32.4401 1.00016L32.2401 0.930163C32.0449 0.857692 31.8443 0.800845 31.6401 0.760161H31.3101C31.1568 0.752472 31.0033 0.752472 30.8501 0.760161C30.6701 0.760161 30.5101 0.760161 30.3901 0.760161H30.0601C29.8567 0.804288 29.6563 0.861067 29.4601 0.930163L29.2501 1.00016C28.1768 1.44006 27.3195 2.28423 26.863 3.35057C26.4065 4.4169 26.3875 5.61994 26.8101 6.70016L30.8101 17.0002Z" fill="#55ACED"/>
<path d="M14.1899 17.0001L18.2699 6.69007C18.6942 5.61022 18.6748 4.40647 18.216 3.34082C17.7572 2.27518 16.896 1.4339 15.8199 1.00008H15.6299C15.4318 0.926221 15.2277 0.869351 15.0199 0.830078H14.6999H14.6499C14.5299 0.830078 14.3699 0.830078 14.1899 0.830078C14.0099 0.830078 13.8499 0.830078 13.7199 0.830078H13.3899C13.1898 0.874174 12.9928 0.930954 12.7999 1.00008L12.5899 1.07008C11.5149 1.50787 10.6559 2.35183 10.1991 3.41889C9.74232 4.48595 9.72465 5.69007 10.1499 6.77008L14.1899 17.0001Z" fill="#55ACED"/>
<path d="M30.8098 28.5L26.7198 38.81C26.2975 39.8929 26.3176 41.0984 26.7759 42.1665C27.2342 43.2347 28.094 44.0799 29.1698 44.52L29.3698 44.58C29.568 44.6539 29.772 44.7107 29.9798 44.75H30.2998C30.4198 44.75 30.5798 44.75 30.7698 44.75C30.9598 44.75 31.1098 44.75 31.2298 44.75H31.5598C31.764 44.7093 31.9646 44.6525 32.1598 44.58L32.3698 44.51C33.4431 44.0701 34.3004 43.2259 34.7569 42.1596C35.2134 41.0933 35.2324 39.8902 34.8098 38.81L30.8098 28.5Z" fill="#55ACED"/>
<path d="M14.1899 28.5L10.1099 38.81C9.68487 39.8927 9.70369 41.0993 10.1623 42.1681C10.6209 43.237 11.4824 44.082 12.5599 44.52L12.7599 44.58C12.9551 44.6525 13.1557 44.7093 13.3599 44.75H13.6799C13.7999 44.75 13.9599 44.75 14.1399 44.75C14.3199 44.75 14.4899 44.75 14.6099 44.75H14.9399C15.1412 44.7106 15.3386 44.6537 15.5299 44.58L15.7499 44.51C16.8231 44.0703 17.6799 43.2255 18.1347 42.1587C18.5895 41.0918 18.6058 39.8888 18.1799 38.81L14.1899 28.5Z" fill="#55ACED"/>
<path d="M43.9061 24.7813C44.8572 22.4852 43.7668 19.8529 41.4707 18.9018C39.1746 17.9507 36.5423 19.0411 35.5912 21.3372C34.6401 23.6333 35.7305 26.2656 38.0266 27.2167C40.3227 28.1678 42.9551 27.0774 43.9061 24.7813Z" fill="#55ACED"/>
<path d="M22.4697 27.5601C24.955 27.5601 26.9697 25.5453 26.9697 23.0601C26.9697 20.5748 24.955 18.5601 22.4697 18.5601C19.9844 18.5601 17.9697 20.5748 17.9697 23.0601C17.9697 25.5453 19.9844 27.5601 22.4697 27.5601Z" fill="#55ACED"/>
<path d="M5.17994 18.5601C4.29036 18.562 3.42131 18.8276 2.68261 19.3233C1.9439 19.819 1.36868 20.5225 1.02962 21.3449C0.690559 22.1673 0.602872 23.0718 0.777633 23.9441C0.952394 24.8163 1.38176 25.6172 2.0115 26.2456C2.64123 26.8739 3.44307 27.3015 4.31571 27.4743C5.18835 27.6471 6.09263 27.5574 6.91432 27.2165C7.736 26.8757 8.43822 26.2989 8.93224 25.5591C9.42627 24.8193 9.68994 23.9496 9.68994 23.0601C9.68729 21.8657 9.21097 20.7211 8.36546 19.8775C7.51996 19.0338 6.37434 18.5601 5.17994 18.5601Z" fill="#55ACED"/>
</g>
<defs>
<clipPath id="clip0">
<rect width="45" height="45" fill="white"/>
</clipPath>
</defs>
</svg>
